<svg xmlns="http://www.w3.org/2000/svg" viewBox="0 0 1080 1080" width="1080" height="1080">
  <rect width="1080" height="1080" fill="#0f766e"/>
  
  <g transform="translate(880,860) scale(2.8) translate(-256,-272)" fill="#ffffff" opacity="0.08">
    <ellipse cx="256" cy="310" rx="52" ry="46"/>
    <ellipse cx="198" cy="238" rx="28" ry="34" transform="rotate(-12 198 238)"/>
    <ellipse cx="314" cy="238" rx="28" ry="34" transform="rotate(12 314 238)"/>
    <ellipse cx="158" cy="278" rx="22" ry="28" transform="rotate(-28 158 278)"/>
    <ellipse cx="354" cy="278" rx="22" ry="28" transform="rotate(28 354 278)"/>
  </g>
  
  
  <g transform="translate(120,112) scale(0.2) translate(-256,-258)">
    <path d="M256 38 C256 38 432 100 432 100 C432 100 432 270 432 270 C432 362 354 432 256 478 C158 432 80 362 80 270 C80 270 80 100 80 100 C80 100 256 38 256 38 Z" fill="#ffffff"/>
    <ellipse cx="256" cy="310" rx="52" ry="46" fill="#0f766e"/>
    <ellipse cx="198" cy="238" rx="28" ry="34" fill="#0f766e" transform="rotate(-12 198 238)"/>
    <ellipse cx="314" cy="238" rx="28" ry="34" fill="#0f766e" transform="rotate(12 314 238)"/>
    <ellipse cx="158" cy="278" rx="22" ry="28" fill="#0f766e" transform="rotate(-28 158 278)"/>
    <ellipse cx="354" cy="278" rx="22" ry="28" fill="#0f766e" transform="rotate(28 354 278)"/>
  </g>
  <text x="180" y="124" font-family="'Poppins','Montserrat','Trebuchet MS',Arial,sans-serif" font-size="34" font-weight="800" letter-spacing="1" fill="#ffffff">BUEN <tspan fill="#bdeee6">ADOPTANTE</tspan></text>
  <text x="540" y="376" font-family="'Poppins','Montserrat','Trebuchet MS',Arial,sans-serif" font-size="92" font-weight="800" fill="#ffffff" text-anchor="middle">Sumate</text>
  <text x="540" y="484" font-family="'Poppins','Montserrat','Trebuchet MS',Arial,sans-serif" font-size="92" font-weight="800" fill="#ffffff" text-anchor="middle">a la red.</text>
  <rect x="450" y="612" width="180" height="8" rx="4" fill="#042f2e"/>
  <text x="540" y="690" font-family="'Poppins','Montserrat','Trebuchet MS',Arial,sans-serif" font-size="37" font-weight="500" fill="#d7f5f0" text-anchor="middle">Creá tu cuenta gratis y</text>
  <text x="540" y="742" font-family="'Poppins','Montserrat','Trebuchet MS',Arial,sans-serif" font-size="37" font-weight="500" fill="#d7f5f0" text-anchor="middle">empezá a consultar hoy.</text>
  <rect x="300" y="800" width="480" height="92" rx="46" fill="#ffffff"/>
  <text x="540" y="861" font-family="'Poppins','Montserrat','Trebuchet MS',Arial,sans-serif" font-size="40" font-weight="800" fill="#0f766e" text-anchor="middle">buenadoptante.org</text>
  <text x="96" y="1000" font-family="'Poppins','Montserrat','Trebuchet MS',Arial,sans-serif" font-size="30" font-weight="600" fill="#ffffff">@buenadoptante</text>
  <text x="984" y="1000" font-family="'Poppins','Montserrat','Trebuchet MS',Arial,sans-serif" font-size="30" font-weight="700" fill="#bdeee6" text-anchor="end">7 / 7</text>
</svg>